<?xml version="1.0" encoding="utf-8"?>
<!-- Generator: Adobe Illustrator 28.2.0, SVG Export Plug-In . SVG Version: 6.00 Build 0)  -->
<svg version="1.1" id="Layer_1" xmlns="http://www.w3.org/2000/svg" xmlns:xlink="http://www.w3.org/1999/xlink" x="0px" y="0px"
	 viewBox="0 0 2521 2911" style="enable-background:new 0 0 2521 2911;" xml:space="preserve">
<style type="text/css">
	.st0{fill:#D92310;}
	.st1{fill:#EC1C24;stroke:#231F20;stroke-width:78;stroke-miterlimit:10;}
	.st2{fill:#FFFFFF;stroke:#231F20;stroke-width:78;stroke-miterlimit:10;}
	.st3{fill:#FFFFFF;}
	.st4{font-family:'HossRound-Medium';}
	.st5{font-size:306.2218px;}
</style>
<polygon class="st0" points="0.2,727.7 0.2,2183.4 1260.3,2910.9 2520.9,2183.4 2520.9,727.7 1260.3,0.2 "/>
<polygon points="76.1,757.6 76.1,2127.8 1262.4,2812.6 2448.9,2127.8 2448.9,757.6 1262.4,72.8 "/>
<g>
	<circle class="st1" cx="1231.5" cy="1344.6" r="572"/>
	<path class="st2" d="M1671.1,528.2c-184.9,0-334.7,149.9-334.7,334.7c0,79.2,27.6,151.8,73.6,209.1l-44.4,48.9
		c-34.5-19.4-74.2-30.7-116.6-30.7c-131.3,0-237.8,106.5-237.8,237.8s106.5,237.8,237.8,237.8c131.3,0,237.8-106.5,237.8-237.8
		c0-50.7-16-97.5-43-136.1l44.4-48.9c52.6,34.4,115.3,54.5,182.8,54.5c184.9,0,334.7-149.9,334.7-334.7
		C2005.9,678,1856,528.2,1671.1,528.2z"/>
	<text transform="matrix(1 0 0 1 607.1128 2200.5776)" class="st3 st4 st5">scrubletR</text>
</g>
<path class="st3" d="M2231.9,2230.9l-683,394.4c-11.8,6.8-27,2.7-33.8-9.1l0,0c-6.8-11.8-2.7-27,9.1-33.8l683-394.4
	c11.8-6.8,27-2.7,33.8,9.1l0,0C2247.7,2208.9,2243.6,2224.1,2231.9,2230.9z"/>
</svg>
